<svg width="14" height="20" viewBox="0 0 14 20" fill="none" xmlns="http://www.w3.org/2000/svg">
<path d="M2.37913 0.579913C2.10206 0.573819 1.82997 0.654138 1.6007 0.809828C1.37142 0.965518 1.19635 1.18888 1.09983 1.44867C1.00331 1.70846 0.990123 1.99182 1.06211 2.25945C1.1341 2.52707 1.28769 2.76551 1.50152 2.94181L9.66038 9.93138L1.50152 16.9185C1.35361 17.0272 1.22973 17.1652 1.13765 17.324C1.04557 17.4828 0.987272 17.659 0.966406 17.8414C0.94554 18.0238 0.962556 18.2085 1.01639 18.384C1.07022 18.5595 1.15971 18.722 1.27925 18.8613C1.39879 19.0006 1.54581 19.1136 1.7111 19.1935C1.87639 19.2734 2.05638 19.3182 2.23982 19.3253C2.42325 19.3324 2.60617 19.3016 2.77712 19.2347C2.94808 19.1678 3.10337 19.0664 3.23329 18.9367L12.5744 10.9444C12.7211 10.8192 12.8389 10.6638 12.9197 10.4887C13.0005 10.3136 13.0423 10.123 13.0423 9.93015C13.0423 9.73731 13.0005 9.5467 12.9197 9.37159C12.8389 9.19647 12.7211 9.04094 12.5744 8.91576L3.23329 0.915789C2.99732 0.706192 2.69466 0.587031 2.37913 0.579605V0.579913Z" fill="#8A7652"/>
</svg>
