<svg width="200" height="79" viewBox="0 0 200 79" fill="none" xmlns="http://www.w3.org/2000/svg">
<path d="M110.775 44.1765H108.678L104.363 53.6315L99.994 44.1765H97.8628V56.5244H99.3599V48.2338L99.2543 45.9405H99.2719L103.641 55.1486H104.997L109.348 45.9405H109.383L109.277 48.2338V56.5244H110.775V44.1765ZM122.763 44.1235H120.861L115.894 56.5244H117.391L118.642 53.3493H124.93L126.181 56.5244H127.731L122.763 44.1235ZM121.777 45.4113H121.795L124.455 52.1497H119.117L121.777 45.4113ZM132.848 44.1765V56.5244H134.345V51.3382H138.414L140.792 56.5244H142.378L139.859 51.2501C141.515 50.7915 142.536 49.4685 142.536 47.7749C142.536 45.7818 141.11 44.1765 138.819 44.1765H132.848ZM138.538 45.3759C140.07 45.3759 140.969 46.4345 140.969 47.7573C140.969 49.098 140.07 50.1388 138.538 50.1388H134.345V45.3759H138.538ZM149.767 44.1765H148.27V56.5244H149.767V44.1765ZM166.052 44.1765H164.555V54.1254L157.826 44.1765H156.258V56.5244H157.756V46.4695L164.485 56.5244H166.052V44.1765ZM178.033 44.1235H176.13L171.162 56.5244H172.66L173.91 53.3493H180.199L181.45 56.5244H183L178.033 44.1235ZM177.046 45.4113H177.064L179.724 52.1497H174.386L177.046 45.4113Z" fill="#0296D3"/>
<path d="M13.5271 44.0182C10.9729 44.0182 9.1233 45.1295 9.1233 47.4051C9.1233 49.8568 11.3076 50.4744 13.3862 51.0035C15.1125 51.4797 16.6098 51.8679 16.6098 53.385C16.6098 54.6198 15.7114 55.4665 13.5448 55.4665C11.6423 55.4665 10.1098 54.7785 9.38751 54.461L9 55.6076C9.88075 56.0839 11.7128 56.6836 13.58 56.6836C16.2928 56.6836 18.1599 55.5546 18.1599 53.2086C18.1599 50.88 16.187 50.2274 13.9146 49.6453C12.2765 49.2044 10.6911 48.8162 10.6911 47.264C10.6911 45.9586 11.7832 45.2176 13.6152 45.2176C15.5528 45.2176 17.0678 45.976 17.244 46.082L17.6667 44.9354C16.7507 44.5121 15.183 44.0182 13.5271 44.0182ZM32.6043 44.177H22.5989V45.3763H26.8442V56.5248H28.3413V45.3763H32.6043V44.177ZM46.3863 44.177H37.7547V56.5248H46.6328V55.3255H39.2521V51.0918H45.3998V49.8922H39.2521V45.3763H46.3863V44.177ZM53.5819 44.177H52.0846V56.5248H60.0821V55.3255H53.5819V44.177ZM66.7545 44.177H65.2571V56.5248H73.2546V55.3255H66.7545V44.177ZM84.5634 44.124H82.661L77.6935 56.5248H79.1906L80.4415 53.3497H86.7301L87.9808 56.5248H89.5308L84.5634 44.124ZM83.5769 45.4117H83.5945L86.2546 52.1501H80.9171L83.5769 45.4117Z" fill="#231F20"/>
<path d="M70.3445 71.3732H69.5315V78.9175H70.2314L70.3034 77.9899C70.6635 78.598 71.3633 79 72.3617 79C74.0084 79 74.8213 77.7839 74.8213 76.2481C74.8213 74.7022 73.9673 73.4757 72.3617 73.4757C71.2604 73.4757 70.6429 73.9808 70.3445 74.4755V71.3732ZM72.1558 74.125C73.3189 74.125 73.9774 74.929 73.9774 76.2481C73.9774 77.5468 73.3085 78.3507 72.1456 78.3507C71.2193 78.3507 70.3343 77.6498 70.3343 76.2481C70.3343 74.8259 71.2193 74.125 72.1558 74.125ZM80.6209 73.5583C79.6636 73.4242 79.0667 74.0633 78.8403 74.6712L78.7682 73.5583H78.0993V78.9175H78.9123V76.1966C78.9123 75.0732 79.499 74.1766 80.5899 74.3208L80.6209 73.5583ZM85.9581 73.4757C84.3423 73.4757 83.1999 74.5168 83.1999 76.238C83.1999 77.9591 84.3423 79 85.9581 79C87.5738 79 88.7162 77.9591 88.7162 76.238C88.7162 74.5168 87.5738 73.4757 85.9581 73.4757ZM85.9581 74.125C87.09 74.125 87.8723 74.8878 87.8723 76.238C87.8723 77.5879 87.09 78.3507 85.9581 78.3507C84.8157 78.3507 84.0438 77.5879 84.0438 76.238C84.0438 74.8878 84.8157 74.125 85.9581 74.125ZM94.4384 73.4757C92.8226 73.4757 91.6802 74.5168 91.6802 76.238C91.6802 77.9591 92.8226 79 94.4384 79C96.0542 79 97.1965 77.9591 97.1965 76.238C97.1965 74.5168 96.0542 73.4757 94.4384 73.4757ZM94.4384 74.125C95.5706 74.125 96.3526 74.8878 96.3526 76.238C96.3526 77.5879 95.5706 78.3507 94.4384 78.3507C93.296 78.3507 92.5241 77.5879 92.5241 76.238C92.5241 74.8878 93.296 74.125 94.4384 74.125ZM101.29 71.3732H100.476V78.9175H101.29V77.2789L102.381 76.176L104.068 78.9175H104.984L102.926 75.6194L104.943 73.5583H104.038L101.29 76.3408V71.3732ZM108.71 71.3732H107.897V78.0518C107.897 78.7217 108.206 78.9896 108.854 78.9896C109.183 78.9896 109.43 78.969 109.585 78.9279L109.564 78.3403C109.502 78.3403 109.317 78.3609 109.122 78.3609C108.895 78.3609 108.71 78.2992 108.71 77.9177V71.3732ZM113.039 71.765C112.741 71.765 112.556 71.9196 112.556 72.1977C112.556 72.4864 112.741 72.6306 113.039 72.6306C113.348 72.6306 113.523 72.4864 113.523 72.1977C113.523 71.9196 113.348 71.765 113.039 71.765ZM113.503 73.5583H112.041V74.1456H112.69V78.9175H113.503V73.5583ZM119.846 73.4861C118.848 73.4861 118.241 73.8983 117.87 74.5374L117.809 73.5583H117.098V78.9175H117.912V76.0112C117.912 75.0938 118.416 74.1149 119.62 74.1149C120.495 74.1149 121.009 74.6301 121.009 75.6194V78.9175H121.823V75.5577C121.823 74.0941 121.051 73.4861 119.846 73.4861Z" fill="#231F20"/>
<path d="M84.7348 36.9463H67.9841V-6.10352e-05H84.7348V36.9463Z" fill="#0296D3"/>
<path d="M110.267 21.3848H86.4395V20.6341H110.267V21.3848Z" fill="#231F20"/>
<path d="M110.16 23.7493V24.5H86.4312V23.7493H110.16Z" fill="#231F20"/>
<path d="M86.4312 27.6162H110.267V26.8653H86.4312V27.6162Z" fill="#231F20"/>
<path d="M86.4312 30.7344H110.267V29.9834H86.4312V30.7344Z" fill="#231F20"/>
<path d="M110.377 33.0987V33.8496H86.4312V33.0987H110.377Z" fill="#231F20"/>
<path d="M86.4312 36.9658H110.449V36.2151H86.4312V36.9658Z" fill="#231F20"/>
<path d="M123.329 36.9658H122.579V0.753227L87.184 0.751289L87.182 20.8264H86.4324L86.4343 0.000347137L123.329 0.002285V36.9658Z" fill="#231F20"/>
<path d="M120.218 36.9639H119.468V3.86856L90.2953 3.86663V20.878H89.5454V3.11592L120.218 3.11786V36.9639Z" fill="#231F20"/>
<path d="M117.105 36.9639H116.355L116.357 6.98416H93.4081V20.8085H92.6584V6.23345H117.106L117.105 36.9639Z" fill="#231F20"/>
<path d="M113.992 36.9639H113.242L113.244 10.1012L96.5194 10.0995V20.7758H95.7698V9.34879L113.994 9.35048L113.992 36.9639Z" fill="#231F20"/>
<path d="M110.88 36.9658H110.131L110.133 13.2168L99.6305 13.2151V20.8434H98.8806V12.4644L110.882 12.4661L110.88 36.9658Z" fill="#231F20"/>
<path d="M84.7348 65.5264H67.9841V64.7948H84.7348V65.5264Z" fill="#0296D3"/>
<path d="M123.329 65.5264H86.4312V64.7948H123.329V65.5264Z" fill="#231F20"/>
</svg>
