<svg width="80" height="80" viewBox="0 0 80 80" fill="none" xmlns="http://www.w3.org/2000/svg">
<circle cx="40" cy="40" r="40" fill="#3B47CC"/>
<path d="M56.5206 39.8056V37.1C56.5206 32.5648 54.78 28.2153 51.6818 25.0085C48.5836 21.8016 44.3815 20 40 20C35.6185 20 31.4164 21.8016 28.3182 25.0085C25.22 28.2153 23.4794 32.5648 23.4794 37.1V39.8056C21.5542 40.6831 19.9785 42.2185 19.0163 44.1548C18.0542 46.0911 17.7638 48.3108 18.1939 50.4423C18.6239 52.5737 19.7484 54.4875 21.3789 55.8634C23.0094 57.2392 25.047 57.9935 27.1507 58C28.1243 58 29.0581 57.5996 29.7466 56.887C30.4351 56.1744 30.8219 55.2078 30.8219 54.2V42.8C30.8219 41.7922 30.4351 40.8256 29.7466 40.113C29.0581 39.4004 28.1243 39 27.1507 39V37.1C27.1507 33.5726 28.5044 30.1897 30.9141 27.6955C33.3239 25.2012 36.5921 23.8 40 23.8C43.4079 23.8 46.6761 25.2012 49.0859 27.6955C51.4956 30.1897 52.8493 33.5726 52.8493 37.1V39C51.8757 39 50.9419 39.4004 50.2534 40.113C49.5649 40.8256 49.1781 41.7922 49.1781 42.8V54.2H43.6712C43.1844 54.2 42.7175 54.4002 42.3733 54.7565C42.029 55.1128 41.8356 55.5961 41.8356 56.1C41.8356 56.6039 42.029 57.0872 42.3733 57.4435C42.7175 57.7998 43.1844 58 43.6712 58H52.8493C54.953 57.9935 56.9906 57.2392 58.6211 55.8634C60.2516 54.4875 61.3761 52.5737 61.8061 50.4423C62.2362 48.3108 61.9458 46.0911 60.9837 44.1548C60.0215 42.2185 58.4458 40.6831 56.5206 39.8056V39.8056ZM27.1507 54.2C25.6902 54.2 24.2895 53.5995 23.2567 52.5305C22.224 51.4615 21.6438 50.0117 21.6438 48.5C21.6438 46.9883 22.224 45.5384 23.2567 44.4695C24.2895 43.4005 25.6902 42.8 27.1507 42.8V54.2ZM52.8493 54.2V42.8C54.3098 42.8 55.7105 43.4005 56.7433 44.4695C57.776 45.5384 58.3562 46.9883 58.3562 48.5C58.3562 50.0117 57.776 51.4615 56.7433 52.5305C55.7105 53.5995 54.3098 54.2 52.8493 54.2Z" fill="white"/>
</svg>
