<svg width="55" height="56" viewBox="0 0 55 56" fill="none" xmlns="http://www.w3.org/2000/svg">
<circle cx="27.5" cy="28.26" r="27.5" fill="#BFA37C"/>
<path d="M34.3333 16.76H20.3333C19.0077 16.7616 17.7368 17.2889 16.7995 18.2262C15.8621 19.1636 15.3348 20.4344 15.3333 21.76V33.76C15.3348 35.0856 15.8621 36.3565 16.7995 37.2938C17.7368 38.2311 19.0077 38.7584 20.3333 38.76H34.3333C35.6588 38.7584 36.9297 38.2311 37.867 37.2938C38.8044 36.3565 39.3317 35.0856 39.3333 33.76V21.76C39.3317 20.4344 38.8044 19.1636 37.867 18.2262C36.9297 17.2889 35.6588 16.7616 34.3333 16.76V16.76ZM20.3333 18.76H34.3333C34.932 18.7612 35.5168 18.9415 36.0122 19.2778C36.5076 19.6141 36.8911 20.091 37.1133 20.647L29.4553 28.306C28.8917 28.8673 28.1287 29.1825 27.3333 29.1825C26.5378 29.1825 25.7748 28.8673 25.2113 28.306L17.5533 20.647C17.7754 20.091 18.1589 19.6141 18.6543 19.2778C19.1497 18.9415 19.7345 18.7612 20.3333 18.76V18.76ZM34.3333 36.76H20.3333C19.5376 36.76 18.7745 36.4439 18.2119 35.8813C17.6493 35.3187 17.3333 34.5557 17.3333 33.76V23.26L23.7973 29.72C24.7359 30.6563 26.0075 31.182 27.3333 31.182C28.659 31.182 29.9306 30.6563 30.8693 29.72L37.3333 23.26V33.76C37.3333 34.5557 37.0172 35.3187 36.4546 35.8813C35.892 36.4439 35.1289 36.76 34.3333 36.76Z" fill="white"/>
</svg>
