<svg width="55" height="55" viewBox="0 0 55 55" fill="none" xmlns="http://www.w3.org/2000/svg">
<circle cx="27.5" cy="27.5" r="26.5" fill="#3BD23B" stroke="white" stroke-width="2"/>
<path fill-rule="evenodd" clip-rule="evenodd" d="M37.2118 17.7784C34.7677 15.3432 31.5172 14.0014 28.0544 14C20.9188 14 15.1115 19.7794 15.1086 26.8827C15.1076 29.1534 15.7037 31.37 16.8366 33.3239L15 40L21.8628 38.2084C23.7537 39.2349 25.8826 39.7759 28.0491 39.7766H28.0545C35.1893 39.7766 40.9973 33.9967 41 26.893C41.0014 23.4504 39.6561 20.2136 37.2118 17.7784ZM28.0544 37.6007H28.0499C26.1192 37.6 24.2257 37.0836 22.5734 36.1081L22.1807 35.8759L18.1082 36.9392L19.1952 32.9876L18.9393 32.5824C17.8622 30.8775 17.2934 28.9068 17.2944 26.8835C17.2966 20.9794 22.1236 16.176 28.0587 16.176C30.9327 16.1769 33.6343 17.2922 35.6658 19.3163C37.6972 21.3404 38.8153 24.0309 38.8144 26.8922C38.8118 32.7968 33.9851 37.6007 28.0544 37.6007V37.6007ZM33.9564 29.5806C33.633 29.4194 32.0426 28.6409 31.7461 28.5333C31.4498 28.4258 31.2339 28.3724 31.0185 28.6945C30.8027 29.0166 30.1829 29.7419 29.9941 29.9566C29.8053 30.1714 29.6169 30.1984 29.2933 30.0372C28.9698 29.8761 27.9276 29.536 26.692 28.4393C25.7305 27.5857 25.0813 26.5315 24.8926 26.2094C24.7041 25.8869 24.891 25.7295 25.0345 25.5524C25.3846 25.1197 25.7353 24.666 25.8431 24.4513C25.951 24.2364 25.897 24.0483 25.816 23.8873C25.7353 23.7262 25.0884 22.1417 24.8189 21.4969C24.5561 20.8694 24.2897 20.9542 24.091 20.9443C23.9025 20.935 23.6868 20.9331 23.471 20.9331C23.2554 20.9331 22.905 21.0135 22.6084 21.336C22.3119 21.6583 21.4764 22.437 21.4764 24.0215C21.4764 25.6061 22.6355 27.1368 22.7972 27.3517C22.9588 27.5665 25.0782 30.8181 28.3229 32.2124C29.0947 32.5444 29.6971 32.7422 30.167 32.8906C30.9419 33.1356 31.6469 33.101 32.2043 33.0182C32.8259 32.9257 34.1179 32.2394 34.3877 31.4875C34.6572 30.7354 34.6572 30.091 34.5762 29.9566C34.4955 29.8223 34.2798 29.7419 33.9564 29.5806V29.5806Z" fill="white"/>
</svg>
