<svg width="55" height="56" viewBox="0 0 55 56" fill="none" xmlns="http://www.w3.org/2000/svg">
<circle cx="27.5" cy="28.26" r="27.5" fill="#BFA37C"/>
<path d="M29.9607 23.7723V19.7723C29.9607 19.5071 30.066 19.2527 30.2535 19.0652C30.4411 18.8777 30.6954 18.7723 30.9607 18.7723C31.2259 18.7723 31.4802 18.8777 31.6678 19.0652C31.8553 19.2527 31.9606 19.5071 31.9606 19.7723V22.3833C32.5906 21.7493 36.6617 17.6573 37.2537 17.0653C37.3459 16.9698 37.4562 16.8936 37.5782 16.8412C37.7002 16.7888 37.8315 16.7612 37.9642 16.76C38.097 16.7589 38.2287 16.7842 38.3516 16.8345C38.4745 16.8848 38.5862 16.959 38.68 17.0529C38.7739 17.1468 38.8482 17.2584 38.8985 17.3813C38.9488 17.5042 38.9741 17.6359 38.9729 17.7687C38.9717 17.9015 38.9442 18.0327 38.8918 18.1547C38.8393 18.2767 38.7632 18.3871 38.6677 18.4793C38.0757 19.0713 34.0257 23.1443 33.3997 23.7723H35.9606C36.2259 23.7723 36.4802 23.8777 36.6678 24.0652C36.8553 24.2527 36.9606 24.5071 36.9606 24.7723C36.9606 25.0375 36.8553 25.2919 36.6678 25.4794C36.4802 25.6669 36.2259 25.7723 35.9606 25.7723H31.9606C31.4302 25.7723 30.9215 25.5616 30.5464 25.1865C30.1714 24.8114 29.9607 24.3027 29.9607 23.7723ZM38.0557 33.5113C38.6352 34.0924 38.9606 34.8796 38.9606 35.7003C38.9606 36.521 38.6352 37.3082 38.0557 37.8893L37.1437 38.9393C28.9527 46.7773 9.02465 26.8553 16.7437 18.6393L17.8937 17.6393C18.4753 17.0758 19.2554 16.764 20.0651 16.7713C20.8749 16.7786 21.6493 17.1045 22.2207 17.6783C22.2517 17.7083 24.1037 20.1163 24.1037 20.1163C24.6516 20.6948 24.9564 21.4617 24.9553 22.2585C24.9542 23.0553 24.6472 23.8213 24.0977 24.3983L22.9397 25.8543C23.5806 27.4113 24.5229 28.8264 25.7123 30.0182C26.9018 31.21 28.3149 32.1552 29.8707 32.7993L31.3356 31.6343C31.9115 31.0833 32.6775 30.7753 33.4744 30.7742C34.2714 30.773 35.0383 31.0789 35.6157 31.6283C35.6157 31.6283 38.0247 33.4813 38.0557 33.5113V33.5113ZM36.6807 34.9653C36.6807 34.9653 34.2876 33.1233 34.2566 33.0933C34.0506 32.889 33.7723 32.7744 33.4821 32.7744C33.192 32.7744 32.9137 32.889 32.7076 33.0933C32.6806 33.1193 30.6637 34.7273 30.6637 34.7273C30.5277 34.8355 30.366 34.9064 30.1943 34.9331C30.0226 34.9597 29.847 34.9412 29.6847 34.8793C27.6681 34.129 25.8364 32.954 24.3137 31.4337C22.7911 29.9135 21.6131 28.0837 20.8597 26.0683C20.7928 25.9038 20.7711 25.7244 20.7966 25.5486C20.822 25.3729 20.8939 25.2071 21.0047 25.0683C21.0047 25.0683 22.6127 23.0543 22.6397 23.0283C22.8439 22.8223 22.9585 22.5439 22.9585 22.2538C22.9585 21.9637 22.8439 21.6853 22.6397 21.4793C22.6097 21.4493 20.7677 19.0543 20.7677 19.0543C20.5586 18.8668 20.2857 18.7664 20.0049 18.7736C19.7241 18.7809 19.4568 18.8953 19.2577 19.0933L18.1077 20.0933C12.4657 26.8763 29.7377 43.1903 35.6807 37.5763L36.5926 36.5253C36.8077 36.328 36.9372 36.0545 36.9536 35.7632C36.97 35.4718 36.8721 35.1855 36.6807 34.9653V34.9653Z" fill="white"/>
</svg>
