<svg width="55" height="55" viewBox="0 0 55 55" fill="none" xmlns="http://www.w3.org/2000/svg">
<circle cx="27.5" cy="27.5" r="27.5" fill="white"/>
<path d="M29.9607 23.0123V19.0123C29.9607 18.7471 30.066 18.4927 30.2535 18.3052C30.4411 18.1176 30.6954 18.0123 30.9607 18.0123C31.2259 18.0123 31.4802 18.1176 31.6678 18.3052C31.8553 18.4927 31.9606 18.7471 31.9606 19.0123V21.6233C32.5906 20.9893 36.6617 16.8973 37.2537 16.3053C37.3459 16.2098 37.4562 16.1336 37.5782 16.0812C37.7002 16.0288 37.8315 16.0012 37.9642 16C38.097 15.9989 38.2287 16.0242 38.3516 16.0745C38.4745 16.1247 38.5862 16.199 38.68 16.2929C38.7739 16.3868 38.8482 16.4984 38.8985 16.6213C38.9488 16.7442 38.9741 16.8759 38.9729 17.0087C38.9717 17.1415 38.9442 17.2727 38.8918 17.3947C38.8393 17.5167 38.7632 17.627 38.6677 17.7193C38.0756 18.3113 34.0257 22.3843 33.3997 23.0123H35.9606C36.2259 23.0123 36.4802 23.1176 36.6678 23.3052C36.8553 23.4927 36.9606 23.7471 36.9606 24.0123C36.9606 24.2775 36.8553 24.5319 36.6678 24.7194C36.4802 24.9069 36.2259 25.0123 35.9606 25.0123H31.9606C31.4302 25.0123 30.9215 24.8016 30.5464 24.4265C30.1714 24.0514 29.9607 23.5427 29.9607 23.0123ZM38.0557 32.7513C38.6352 33.3324 38.9606 34.1196 38.9606 34.9403C38.9606 35.761 38.6352 36.5482 38.0557 37.1293L37.1437 38.1793C28.9527 46.0173 9.02465 26.0953 16.7437 17.8793L17.8937 16.8793C18.4753 16.3158 19.2554 16.004 20.0651 16.0113C20.8749 16.0186 21.6493 16.3444 22.2207 16.9183C22.2517 16.9483 24.1037 19.3563 24.1037 19.3563C24.6516 19.9348 24.9564 20.7017 24.9553 21.4985C24.9542 22.2953 24.6472 23.0613 24.0977 23.6383L22.9397 25.0943C23.5806 26.6513 24.5229 28.0664 25.7123 29.2582C26.9018 30.45 28.3149 31.3952 29.8707 32.0393L31.3356 30.8743C31.9115 30.3233 32.6775 30.0153 33.4744 30.0141C34.2714 30.013 35.0383 30.3189 35.6157 30.8683C35.6157 30.8683 38.0247 32.7213 38.0557 32.7513ZM36.6807 34.2053C36.6807 34.2053 34.2876 32.3633 34.2566 32.3333C34.0506 32.129 33.7723 32.0144 33.4821 32.0144C33.192 32.0144 32.9137 32.129 32.7076 32.3333C32.6806 32.3593 30.6637 33.9673 30.6637 33.9673C30.5277 34.0755 30.366 34.1464 30.1943 34.173C30.0226 34.1997 29.847 34.1812 29.6847 34.1193C27.6681 33.369 25.8364 32.1939 24.3137 30.6737C22.7911 29.1535 21.6131 27.3237 20.8597 25.3083C20.7928 25.1437 20.7711 24.9644 20.7966 24.7886C20.822 24.6129 20.8939 24.4471 21.0047 24.3083C21.0047 24.3083 22.6127 22.2943 22.6397 22.2683C22.8439 22.0623 22.9585 21.7839 22.9585 21.4938C22.9585 21.2037 22.8439 20.9253 22.6397 20.7193C22.6097 20.6893 20.7677 18.2943 20.7677 18.2943C20.5586 18.1068 20.2857 18.0064 20.0049 18.0136C19.7241 18.0209 19.4568 18.1353 19.2577 18.3333L18.1077 19.3333C12.4657 26.1163 29.7377 42.4303 35.6807 36.8163L36.5926 35.7653C36.8077 35.568 36.9372 35.2945 36.9536 35.0032C36.97 34.7118 36.8721 34.4255 36.6807 34.2053Z" fill="#252D80"/>
</svg>
