<svg width="55" height="56" viewBox="0 0 55 56" fill="none" xmlns="http://www.w3.org/2000/svg">
<circle cx="27.5" cy="28.26" r="26.5" fill="#3BD23B" stroke="white" stroke-width="2"/>
<path fill-rule="evenodd" clip-rule="evenodd" d="M37.2118 18.5385C34.7677 16.1032 31.5172 14.7614 28.0544 14.76C20.9188 14.76 15.1115 20.5394 15.1086 27.6427C15.1076 29.9135 15.7037 32.1301 16.8366 34.0839L15 40.76L21.8628 38.9684C23.7537 39.995 25.8826 40.5359 28.0491 40.5366H28.0545C35.1893 40.5366 40.9973 34.7567 41 27.6531C41.0014 24.2104 39.6561 20.9736 37.2118 18.5385ZM28.0544 38.3608H28.0499C26.1192 38.36 24.2257 37.8436 22.5734 36.8681L22.1807 36.6359L18.1082 37.6992L19.1952 33.7476L18.9393 33.3425C17.8622 31.6375 17.2934 29.6668 17.2944 27.6435C17.2966 21.7394 22.1236 16.936 28.0587 16.936C30.9327 16.9369 33.6343 18.0522 35.6658 20.0763C37.6972 22.1004 38.8153 24.7909 38.8144 27.6523C38.8118 33.5568 33.9851 38.3608 28.0544 38.3608V38.3608ZM33.9564 30.3406C33.633 30.1794 32.0426 29.4009 31.7461 29.2933C31.4498 29.1859 31.2339 29.1324 31.0185 29.4545C30.8027 29.7767 30.1829 30.5019 29.9941 30.7166C29.8053 30.9315 29.6169 30.9584 29.2933 30.7972C28.9698 30.6361 27.9276 30.2961 26.692 29.1993C25.7305 28.3457 25.0813 27.2916 24.8926 26.9694C24.7041 26.6469 24.891 26.4895 25.0345 26.3124C25.3846 25.8797 25.7353 25.426 25.8431 25.2113C25.951 24.9964 25.897 24.8083 25.816 24.6473C25.7353 24.4862 25.0884 22.9017 24.8189 22.2569C24.5561 21.6294 24.2897 21.7142 24.091 21.7043C23.9025 21.695 23.6868 21.6931 23.471 21.6931C23.2554 21.6931 22.905 21.7735 22.6084 22.096C22.3119 22.4183 21.4764 23.197 21.4764 24.7815C21.4764 26.3661 22.6355 27.8968 22.7972 28.1117C22.9588 28.3265 25.0782 31.5781 28.3229 32.9724C29.0947 33.3044 29.6971 33.5023 30.167 33.6506C30.9419 33.8957 31.6469 33.8611 32.2043 33.7782C32.8259 33.6857 34.1179 32.9994 34.3877 32.2475C34.6572 31.4954 34.6572 30.851 34.5762 30.7166C34.4955 30.5823 34.2798 30.5019 33.9564 30.3406V30.3406Z" fill="white"/>
</svg>
