<svg width="55" height="55" viewBox="0 0 55 55" fill="none" xmlns="http://www.w3.org/2000/svg">
<circle cx="27.5" cy="27.5" r="27.5" fill="white"/>
<path d="M34.3333 16H20.3333C19.0077 16.0016 17.7368 16.5289 16.7995 17.4662C15.8621 18.4036 15.3348 19.6744 15.3333 21V33C15.3348 34.3256 15.8621 35.5964 16.7995 36.5338C17.7368 37.4711 19.0077 37.9984 20.3333 38H34.3333C35.6588 37.9984 36.9297 37.4711 37.867 36.5338C38.8044 35.5964 39.3317 34.3256 39.3333 33V21C39.3317 19.6744 38.8044 18.4036 37.867 17.4662C36.9297 16.5289 35.6588 16.0016 34.3333 16ZM20.3333 18H34.3333C34.932 18.0012 35.5168 18.1815 36.0122 18.5178C36.5076 18.8541 36.8911 19.3309 37.1133 19.887L29.4553 27.546C28.8917 28.1073 28.1287 28.4225 27.3333 28.4225C26.5378 28.4225 25.7748 28.1073 25.2113 27.546L17.5533 19.887C17.7754 19.3309 18.1589 18.8541 18.6543 18.5178C19.1497 18.1815 19.7345 18.0012 20.3333 18ZM34.3333 36H20.3333C19.5376 36 18.7745 35.6839 18.2119 35.1213C17.6493 34.5587 17.3333 33.7956 17.3333 33V22.5L23.7973 28.96C24.7359 29.8963 26.0075 30.422 27.3333 30.422C28.659 30.422 29.9306 29.8963 30.8693 28.96L37.3333 22.5V33C37.3333 33.7956 37.0172 34.5587 36.4546 35.1213C35.892 35.6839 35.1289 36 34.3333 36Z" fill="#252D80"/>
</svg>
