<svg width="63" height="63" viewBox="0 0 63 63" fill="none" xmlns="http://www.w3.org/2000/svg">
<g filter="url(#filter0_d_599_1133)">
<circle cx="31.5" cy="27.5" r="27.5" fill="white"/>
<path d="M43.264 27.5512V25.7C43.264 22.597 42.0773 19.621 39.9649 17.4269C37.8525 15.2327 34.9874 14 32 14C29.0126 14 26.1475 15.2327 24.0351 17.4269C21.9227 19.621 20.736 22.597 20.736 25.7V27.5512C19.4233 28.1516 18.349 29.2021 17.693 30.527C17.0369 31.8518 16.8389 33.3706 17.1322 34.8289C17.4254 36.2873 18.1921 37.5967 19.3038 38.5381C20.4155 39.4794 21.8048 39.9955 23.2391 40C23.903 40 24.5396 39.7261 25.0091 39.2385C25.4785 38.7509 25.7422 38.0896 25.7422 37.4V29.6C25.7422 28.9104 25.4785 28.2491 25.0091 27.7615C24.5396 27.2739 23.903 27 23.2391 27V25.7C23.2391 23.2865 24.1621 20.9719 25.8051 19.2653C27.4481 17.5587 29.6765 16.6 32 16.6C34.3235 16.6 36.5519 17.5587 38.1949 19.2653C39.8379 20.9719 40.7609 23.2865 40.7609 25.7V27C40.097 27 39.4604 27.2739 38.9909 27.7615C38.5215 28.2491 38.2578 28.9104 38.2578 29.6V37.4H34.5031C34.1712 37.4 33.8528 37.537 33.6181 37.7808C33.3834 38.0246 33.2516 38.3552 33.2516 38.7C33.2516 39.0448 33.3834 39.3754 33.6181 39.6192C33.8528 39.863 34.1712 40 34.5031 40H40.7609C42.1952 39.9955 43.5845 39.4794 44.6962 38.5381C45.8079 37.5967 46.5746 36.2873 46.8678 34.8289C47.1611 33.3706 46.9631 31.8518 46.307 30.527C45.651 29.2021 44.5767 28.1516 43.264 27.5512ZM23.2391 37.4C22.2433 37.4 21.2883 36.9891 20.5841 36.2577C19.88 35.5263 19.4844 34.5343 19.4844 33.5C19.4844 32.4657 19.88 31.4737 20.5841 30.7423C21.2883 30.0109 22.2433 29.6 23.2391 29.6V37.4ZM40.7609 37.4V29.6C41.7567 29.6 42.7117 30.0109 43.4159 30.7423C44.12 31.4737 44.5156 32.4657 44.5156 33.5C44.5156 34.5343 44.12 35.5263 43.4159 36.2577C42.7117 36.9891 41.7567 37.4 40.7609 37.4Z" fill="#252D80"/>
</g>
<defs>
<filter id="filter0_d_599_1133" x="0" y="0" width="63" height="63" filterUnits="userSpaceOnUse" color-interpolation-filters="sRGB">
<feFlood flood-opacity="0" result="BackgroundImageFix"/>
<feColorMatrix in="SourceAlpha" type="matrix" values="0 0 0 0 0 0 0 0 0 0 0 0 0 0 0 0 0 0 127 0" result="hardAlpha"/>
<feOffset dy="4"/>
<feGaussianBlur stdDeviation="2"/>
<feComposite in2="hardAlpha" operator="out"/>
<feColorMatrix type="matrix" values="0 0 0 0 0 0 0 0 0 0 0 0 0 0 0 0 0 0 0.25 0"/>
<feBlend mode="normal" in2="BackgroundImageFix" result="effect1_dropShadow_599_1133"/>
<feBlend mode="normal" in="SourceGraphic" in2="effect1_dropShadow_599_1133" result="shape"/>
</filter>
</defs>
</svg>
