<svg width="80" height="80" viewBox="0 0 80 80" fill="none" xmlns="http://www.w3.org/2000/svg">
<circle cx="40" cy="40" r="40" fill="#3B47CC"/>
<path d="M43.5791 33.4722V27.654C43.5791 27.2682 43.7323 26.8982 44.0051 26.6255C44.2779 26.3527 44.6478 26.1994 45.0336 26.1994C45.4194 26.1994 45.7893 26.3527 46.0621 26.6255C46.3349 26.8982 46.4881 27.2682 46.4881 27.654V31.4518C47.4045 30.5296 53.326 24.5776 54.1871 23.7165C54.3212 23.5776 54.4817 23.4668 54.6592 23.3906C54.8367 23.3143 55.0275 23.2742 55.2207 23.2725C55.4138 23.2708 55.6053 23.3076 55.7841 23.3808C55.9628 23.4539 56.1252 23.5619 56.2618 23.6985C56.3984 23.8351 56.5064 23.9975 56.5795 24.1762C56.6527 24.355 56.6895 24.5465 56.6878 24.7396C56.6861 24.9328 56.646 25.1236 56.5698 25.3011C56.4935 25.4786 56.3827 25.6391 56.2438 25.7732C55.3827 26.6343 49.4918 32.5587 48.5812 33.4722H52.3063C52.6921 33.4722 53.0621 33.6254 53.3349 33.8982C53.6076 34.171 53.7609 34.5409 53.7609 34.9267C53.7609 35.3125 53.6076 35.6824 53.3349 35.9552C53.0621 36.228 52.6921 36.3812 52.3063 36.3812H46.4881C45.7166 36.3812 44.9767 36.0748 44.4311 35.5292C43.8856 34.9836 43.5791 34.2437 43.5791 33.4722ZM55.3536 47.638C56.1965 48.4832 56.6699 49.6282 56.6699 50.822C56.6699 52.0157 56.1965 53.1607 55.3536 54.006L54.0271 55.5332C42.1129 66.934 13.1267 37.9565 24.3543 26.006L26.0271 24.5514C26.8731 23.7319 28.0078 23.2783 29.1856 23.2889C30.3635 23.2996 31.4898 23.7735 32.3209 24.6082C32.366 24.6518 35.0598 28.1543 35.0598 28.1543C35.8568 28.9959 36.3002 30.1112 36.2986 31.2703C36.297 32.4293 35.8504 33.5434 35.0511 34.3827L33.3667 36.5005C34.299 38.7653 35.6696 40.8236 37.3997 42.5571C39.1298 44.2907 41.1853 45.6654 43.4482 46.6023L45.5791 44.9078C46.4167 44.1063 47.5308 43.6583 48.69 43.6567C49.8493 43.655 50.9647 44.1 51.8045 44.8991C51.8045 44.8991 55.3085 47.5943 55.3536 47.638ZM53.3536 49.7529C53.3536 49.7529 49.8729 47.0736 49.8278 47.03C49.5281 46.7329 49.1232 46.5661 48.7012 46.5661C48.2793 46.5661 47.8744 46.7329 47.5747 47.03C47.5354 47.0678 44.6016 49.4067 44.6016 49.4067C44.4039 49.5641 44.1686 49.6672 43.9189 49.706C43.6692 49.7448 43.4137 49.7178 43.1776 49.6278C40.2444 48.5365 37.5801 46.8273 35.3654 44.6161C33.1506 42.4048 31.4372 39.7433 30.3412 36.8118C30.2441 36.5725 30.2124 36.3116 30.2495 36.0559C30.2865 35.8003 30.391 35.5591 30.5522 35.3572C30.5522 35.3572 32.8911 32.4278 32.9303 32.39C33.2275 32.0903 33.3942 31.6854 33.3942 31.2634C33.3942 30.8414 33.2275 30.4365 32.9303 30.1369C32.8867 30.0932 30.2074 26.6096 30.2074 26.6096C29.9033 26.3369 29.5063 26.1908 29.098 26.2014C28.6896 26.2119 28.3007 26.3783 28.0111 26.6663L26.3383 28.1209C18.1318 37.9871 43.2547 61.7165 51.8991 53.5507L53.2256 52.022C53.5384 51.735 53.7267 51.3372 53.7506 50.9134C53.7745 50.4896 53.6321 50.0732 53.3536 49.7529Z" fill="white"/>
</svg>
