<svg width="80" height="80" viewBox="0 0 80 80" fill="none" xmlns="http://www.w3.org/2000/svg">
<circle cx="40" cy="40" r="40" fill="#3B47CC"/>
<path d="M49.9393 23.2725H29.5757C27.6476 23.2748 25.7991 24.0417 24.4357 25.4051C23.0723 26.7685 22.3053 28.6171 22.303 30.5452V47.9997C22.3053 49.9279 23.0723 51.7764 24.4357 53.1398C25.7991 54.5032 27.6476 55.2702 29.5757 55.2725H49.9393C51.8675 55.2702 53.716 54.5032 55.0794 53.1398C56.4428 51.7764 57.2098 49.9279 57.2121 47.9997V30.5452C57.2098 28.6171 56.4428 26.7685 55.0794 25.4051C53.716 24.0417 51.8675 23.2748 49.9393 23.2725V23.2725ZM29.5757 26.1816H49.9393C50.8103 26.1833 51.6608 26.4456 52.3815 26.9347C53.1021 27.4239 53.6599 28.1175 53.983 28.9263L42.8441 40.0666C42.0243 40.8831 40.9145 41.3415 39.7575 41.3415C38.6006 41.3415 37.4907 40.8831 36.671 40.0666L25.5321 28.9263C25.8552 28.1175 26.413 27.4239 27.1336 26.9347C27.8542 26.4456 28.7047 26.1833 29.5757 26.1816V26.1816ZM49.9393 52.3634H29.5757C28.4184 52.3634 27.3085 51.9036 26.4901 51.0853C25.6718 50.267 25.2121 49.157 25.2121 47.9997V32.727L34.6143 42.1234C35.9795 43.4852 37.8292 44.25 39.7575 44.25C41.6859 44.25 43.5355 43.4852 44.9008 42.1234L54.303 32.727V47.9997C54.303 49.157 53.8432 50.267 53.0249 51.0853C52.2066 51.9036 51.0967 52.3634 49.9393 52.3634Z" fill="white"/>
</svg>
