<svg width="14" height="20" viewBox="0 0 14 20" fill="none" xmlns="http://www.w3.org/2000/svg">
<path d="M2.37913 0.580035C2.10206 0.573941 1.82997 0.65426 1.6007 0.80995C1.37142 0.96564 1.19635 1.189 1.09983 1.44879C1.00331 1.70858 0.990123 1.99194 1.06211 2.25957C1.1341 2.52719 1.28769 2.76563 1.50152 2.94193L9.66038 9.9315L1.50152 16.9186C1.35361 17.0273 1.22973 17.1654 1.13765 17.3242C1.04557 17.483 0.987272 17.6591 0.966406 17.8415C0.94554 18.0239 0.962556 18.2086 1.01639 18.3841C1.07022 18.5596 1.15971 18.7221 1.27925 18.8614C1.39879 19.0008 1.54581 19.1138 1.7111 19.1936C1.87639 19.2735 2.05638 19.3183 2.23982 19.3254C2.42325 19.3325 2.60617 19.3017 2.77712 19.2348C2.94808 19.1679 3.10337 19.0665 3.23329 18.9368L12.5744 10.9445C12.7211 10.8193 12.8389 10.664 12.9197 10.4888C13.0005 10.3137 13.0423 10.1231 13.0423 9.93027C13.0423 9.73743 13.0005 9.54683 12.9197 9.37171C12.8389 9.1966 12.7211 9.04106 12.5744 8.91588L3.23329 0.915911C2.99732 0.706314 2.69466 0.587153 2.37913 0.579727V0.580035Z" fill="#252D80"/>
</svg>
