<svg width="146" height="138" viewBox="0 0 146 138" fill="none" xmlns="http://www.w3.org/2000/svg">
<path d="M3.89418 21H0.928267L5.44744 7.90909H9.0142L13.527 21H10.5611L7.28196 10.9006H7.17969L3.89418 21ZM3.70881 15.8544H10.7145V18.0149H3.70881V15.8544ZM22.992 13.9815L20.4991 14.1349C20.4565 13.9219 20.3649 13.7301 20.2243 13.5597C20.0836 13.3849 19.8983 13.2464 19.6681 13.1442C19.4423 13.0376 19.1717 12.9844 18.8564 12.9844C18.4345 12.9844 18.0787 13.0739 17.7889 13.2528C17.4991 13.4276 17.3542 13.6619 17.3542 13.956C17.3542 14.1903 17.448 14.3885 17.6355 14.5504C17.823 14.7124 18.1447 14.8423 18.6007 14.9403L20.3777 15.2983C21.3322 15.4943 22.0439 15.8097 22.5126 16.2443C22.9814 16.679 23.2157 17.25 23.2157 17.9574C23.2157 18.6009 23.0261 19.1655 22.6468 19.6513C22.2718 20.1371 21.7562 20.5163 21.1 20.7891C20.448 21.0575 19.6958 21.1918 18.8436 21.1918C17.5439 21.1918 16.5083 20.9212 15.737 20.38C14.97 19.8345 14.5204 19.093 14.3883 18.1555L17.0666 18.0149C17.1475 18.4112 17.3436 18.7138 17.6547 18.9226C17.9657 19.1271 18.3642 19.2294 18.85 19.2294C19.3272 19.2294 19.7108 19.1378 20.0005 18.9545C20.2946 18.767 20.4437 18.5263 20.448 18.2322C20.4437 17.9851 20.3393 17.7827 20.1348 17.625C19.9302 17.4631 19.6149 17.3395 19.1887 17.2543L17.4885 16.9155C16.5297 16.7237 15.8159 16.3913 15.3471 15.9183C14.8826 15.4453 14.6504 14.8423 14.6504 14.1094C14.6504 13.4787 14.8208 12.9354 15.1618 12.4794C15.5069 12.0234 15.9906 11.6719 16.6127 11.4247C17.2392 11.1776 17.9721 11.054 18.8116 11.054C20.0517 11.054 21.0275 11.3161 21.7392 11.8402C22.4551 12.3643 22.8727 13.0781 22.992 13.9815ZM33.0994 13.9815L30.6065 14.1349C30.5639 13.9219 30.4723 13.7301 30.3317 13.5597C30.1911 13.3849 30.0057 13.2464 29.7756 13.1442C29.5497 13.0376 29.2791 12.9844 28.9638 12.9844C28.5419 12.9844 28.1861 13.0739 27.8963 13.2528C27.6065 13.4276 27.4616 13.6619 27.4616 13.956C27.4616 14.1903 27.5554 14.3885 27.7429 14.5504C27.9304 14.7124 28.2521 14.8423 28.7081 14.9403L30.4851 15.2983C31.4396 15.4943 32.1513 15.8097 32.62 16.2443C33.0888 16.679 33.3232 17.25 33.3232 17.9574C33.3232 18.6009 33.1335 19.1655 32.7543 19.6513C32.3793 20.1371 31.8636 20.5163 31.2074 20.7891C30.5554 21.0575 29.8033 21.1918 28.951 21.1918C27.6513 21.1918 26.6158 20.9212 25.8445 20.38C25.0774 19.8345 24.6278 19.093 24.4957 18.1555L27.174 18.0149C27.255 18.4112 27.451 18.7138 27.7621 18.9226C28.0732 19.1271 28.4716 19.2294 28.9574 19.2294C29.4347 19.2294 29.8182 19.1378 30.108 18.9545C30.402 18.767 30.5511 18.5263 30.5554 18.2322C30.5511 17.9851 30.4467 17.7827 30.2422 17.625C30.0376 17.4631 29.7223 17.3395 29.2962 17.2543L27.5959 16.9155C26.6371 16.7237 25.9233 16.3913 25.4545 15.9183C24.9901 15.4453 24.7578 14.8423 24.7578 14.1094C24.7578 13.4787 24.9283 12.9354 25.2692 12.4794C25.6143 12.0234 26.098 11.6719 26.7202 11.4247C27.3466 11.1776 28.0795 11.054 28.919 11.054C30.1591 11.054 31.1349 11.3161 31.8466 11.8402C32.5625 12.3643 32.9801 13.0781 33.0994 13.9815ZM35.0378 21V11.1818H37.7608V21H35.0378ZM36.4057 9.91619C36.0009 9.91619 35.6536 9.78196 35.3638 9.51349C35.0783 9.24077 34.9355 8.91477 34.9355 8.53551C34.9355 8.16051 35.0783 7.83878 35.3638 7.57031C35.6536 7.29758 36.0009 7.16122 36.4057 7.16122C36.8105 7.16122 37.1557 7.29758 37.4412 7.57031C37.731 7.83878 37.8759 8.16051 37.8759 8.53551C37.8759 8.91477 37.731 9.24077 37.4412 9.51349C37.1557 9.78196 36.8105 9.91619 36.4057 9.91619ZM48.1112 13.9815L45.6183 14.1349C45.5756 13.9219 45.484 13.7301 45.3434 13.5597C45.2028 13.3849 45.0174 13.2464 44.7873 13.1442C44.5614 13.0376 44.2908 12.9844 43.9755 12.9844C43.5536 12.9844 43.1978 13.0739 42.908 13.2528C42.6183 13.4276 42.4734 13.6619 42.4734 13.956C42.4734 14.1903 42.5671 14.3885 42.7546 14.5504C42.9421 14.7124 43.2638 14.8423 43.7198 14.9403L45.4968 15.2983C46.4513 15.4943 47.163 15.8097 47.6317 16.2443C48.1005 16.679 48.3349 17.25 48.3349 17.9574C48.3349 18.6009 48.1452 19.1655 47.766 19.6513C47.391 20.1371 46.8754 20.5163 46.2191 20.7891C45.5671 21.0575 44.815 21.1918 43.9627 21.1918C42.663 21.1918 41.6275 20.9212 40.8562 20.38C40.0891 19.8345 39.6396 19.093 39.5075 18.1555L42.1857 18.0149C42.2667 18.4112 42.4627 18.7138 42.7738 18.9226C43.0849 19.1271 43.4833 19.2294 43.9691 19.2294C44.4464 19.2294 44.8299 19.1378 45.1197 18.9545C45.4137 18.767 45.5629 18.5263 45.5671 18.2322C45.5629 17.9851 45.4585 17.7827 45.2539 17.625C45.0494 17.4631 44.734 17.3395 44.3079 17.2543L42.6076 16.9155C41.6488 16.7237 40.935 16.3913 40.4663 15.9183C40.0018 15.4453 39.7695 14.8423 39.7695 14.1094C39.7695 13.4787 39.94 12.9354 40.2809 12.4794C40.6261 12.0234 41.1097 11.6719 41.7319 11.4247C42.3583 11.1776 43.0913 11.054 43.9308 11.054C45.1708 11.054 46.1467 11.3161 46.8583 11.8402C47.5742 12.3643 47.9918 13.0781 48.1112 13.9815ZM55.2718 11.1818V13.2273H49.3592V11.1818H55.2718ZM50.7015 8.82955H53.4245V17.983C53.4245 18.2344 53.4629 18.4304 53.5396 18.571C53.6163 18.7074 53.7228 18.8033 53.8592 18.8587C53.9998 18.9141 54.1618 18.9418 54.345 18.9418C54.4728 18.9418 54.6007 18.9311 54.7285 18.9098C54.8564 18.8842 54.9544 18.8651 55.0226 18.8523L55.4508 20.8786C55.3145 20.9212 55.1227 20.9702 54.8755 21.0256C54.6284 21.0852 54.3279 21.1214 53.9743 21.1342C53.318 21.1598 52.7427 21.0724 52.2484 20.8722C51.7583 20.6719 51.377 20.3608 51.1042 19.9389C50.8315 19.517 50.6973 18.9844 50.7015 18.3409V8.82955ZM59.8453 21.1854C59.2189 21.1854 58.6607 21.0767 58.1706 20.8594C57.6806 20.6378 57.2928 20.3118 57.0073 19.8814C56.726 19.4467 56.5854 18.9055 56.5854 18.2578C56.5854 17.7124 56.6855 17.2543 56.8858 16.8835C57.0861 16.5128 57.3588 16.2145 57.704 15.9886C58.0492 15.7628 58.4412 15.5923 58.8801 15.4773C59.3233 15.3622 59.7878 15.2812 60.2736 15.2344C60.8446 15.1747 61.3049 15.1193 61.6543 15.0682C62.0037 15.0128 62.2573 14.9318 62.415 14.8253C62.5726 14.7187 62.6515 14.5611 62.6515 14.3523V14.3139C62.6515 13.9091 62.5236 13.5959 62.2679 13.3743C62.0165 13.1527 61.6586 13.0419 61.1941 13.0419C60.704 13.0419 60.3141 13.1506 60.0243 13.3679C59.7346 13.581 59.5428 13.8494 59.449 14.1733L56.9306 13.9688C57.0584 13.3722 57.3098 12.8565 57.6848 12.4219C58.0598 11.983 58.5435 11.6463 59.1358 11.4119C59.7324 11.1733 60.4228 11.054 61.2069 11.054C61.7523 11.054 62.2743 11.1179 62.7729 11.2457C63.2757 11.3736 63.7211 11.5717 64.1088 11.8402C64.5009 12.1087 64.8098 12.4538 65.0357 12.8757C65.2615 13.2933 65.3745 13.794 65.3745 14.3778V21H62.7921V19.6385H62.7154C62.5577 19.9453 62.3468 20.2159 62.0826 20.4503C61.8184 20.6804 61.5009 20.8615 61.1301 20.9936C60.7594 21.1214 60.3311 21.1854 59.8453 21.1854ZM60.6252 19.3061C61.0257 19.3061 61.3794 19.2273 61.6863 19.0696C61.9931 18.9077 62.2338 18.6903 62.4086 18.4176C62.5833 18.1449 62.6706 17.8359 62.6706 17.4908V16.4489C62.5854 16.5043 62.4682 16.5554 62.3191 16.6023C62.1742 16.6449 62.0101 16.6854 61.8269 16.7237C61.6436 16.7578 61.4604 16.7898 61.2772 16.8196C61.0939 16.8452 60.9277 16.8686 60.7786 16.8899C60.459 16.9368 60.1799 17.0114 59.9412 17.1136C59.7026 17.2159 59.5172 17.3544 59.3851 17.5291C59.253 17.6996 59.187 17.9126 59.187 18.1683C59.187 18.5391 59.3212 18.8224 59.5897 19.0185C59.8624 19.2102 60.2076 19.3061 60.6252 19.3061ZM74.4528 21.1854C73.8263 21.1854 73.2681 21.0767 72.7781 20.8594C72.288 20.6378 71.9002 20.3118 71.6147 19.8814C71.3335 19.4467 71.1928 18.9055 71.1928 18.2578C71.1928 17.7124 71.293 17.2543 71.4933 16.8835C71.6935 16.5128 71.9663 16.2145 72.3114 15.9886C72.6566 15.7628 73.0487 15.5923 73.4876 15.4773C73.9308 15.3622 74.3952 15.2812 74.881 15.2344C75.4521 15.1747 75.9123 15.1193 76.2617 15.0682C76.6112 15.0128 76.8647 14.9318 77.0224 14.8253C77.18 14.7187 77.2589 14.5611 77.2589 14.3523V14.3139C77.2589 13.9091 77.131 13.5959 76.8754 13.3743C76.6239 13.1527 76.266 13.0419 75.8015 13.0419C75.3114 13.0419 74.9215 13.1506 74.6317 13.3679C74.342 13.581 74.1502 13.8494 74.0565 14.1733L71.538 13.9688C71.6658 13.3722 71.9173 12.8565 72.2923 12.4219C72.6673 11.983 73.1509 11.6463 73.7433 11.4119C74.3398 11.1733 75.0302 11.054 75.8143 11.054C76.3597 11.054 76.8817 11.1179 77.3803 11.2457C77.8832 11.3736 78.3285 11.5717 78.7163 11.8402C79.1083 12.1087 79.4173 12.4538 79.6431 12.8757C79.869 13.2933 79.9819 13.794 79.9819 14.3778V21H77.3995V19.6385H77.3228C77.1651 19.9453 76.9542 20.2159 76.69 20.4503C76.4258 20.6804 76.1083 20.8615 75.7376 20.9936C75.3668 21.1214 74.9386 21.1854 74.4528 21.1854ZM75.2326 19.3061C75.6332 19.3061 75.9869 19.2273 76.2937 19.0696C76.6005 18.9077 76.8413 18.6903 77.016 18.4176C77.1907 18.1449 77.2781 17.8359 77.2781 17.4908V16.4489C77.1928 16.5043 77.0756 16.5554 76.9265 16.6023C76.7816 16.6449 76.6175 16.6854 76.4343 16.7237C76.2511 16.7578 76.0678 16.7898 75.8846 16.8196C75.7013 16.8452 75.5352 16.8686 75.386 16.8899C75.0664 16.9368 74.7873 17.0114 74.5487 17.1136C74.31 17.2159 74.1246 17.3544 73.9925 17.5291C73.8604 17.6996 73.7944 17.9126 73.7944 18.1683C73.7944 18.5391 73.9286 18.8224 74.1971 19.0185C74.4698 19.2102 74.815 19.3061 75.2326 19.3061ZM86.5305 21.1918C85.5376 21.1918 84.679 20.9808 83.9545 20.5589C83.2344 20.1328 82.6783 19.5405 82.2862 18.782C81.8942 18.0192 81.6982 17.1349 81.6982 16.1293C81.6982 15.1151 81.8942 14.2287 82.2862 13.4702C82.6783 12.7074 83.2344 12.1151 83.9545 11.6932C84.679 11.267 85.5376 11.054 86.5305 11.054C87.5234 11.054 88.38 11.267 89.1001 11.6932C89.8246 12.1151 90.3828 12.7074 90.7749 13.4702C91.1669 14.2287 91.3629 15.1151 91.3629 16.1293C91.3629 17.1349 91.1669 18.0192 90.7749 18.782C90.3828 19.5405 89.8246 20.1328 89.1001 20.5589C88.38 20.9808 87.5234 21.1918 86.5305 21.1918ZM86.5433 19.0824C86.995 19.0824 87.3722 18.9545 87.6747 18.6989C87.9773 18.4389 88.2053 18.0852 88.3587 17.6378C88.5163 17.1903 88.5952 16.6811 88.5952 16.1101C88.5952 15.5391 88.5163 15.0298 88.3587 14.5824C88.2053 14.1349 87.9773 13.7812 87.6747 13.5213C87.3722 13.2614 86.995 13.1314 86.5433 13.1314C86.0874 13.1314 85.7038 13.2614 85.3928 13.5213C85.0859 13.7812 84.8537 14.1349 84.696 14.5824C84.5426 15.0298 84.4659 15.5391 84.4659 16.1101C84.4659 16.6811 84.5426 17.1903 84.696 17.6378C84.8537 18.0852 85.0859 18.4389 85.3928 18.6989C85.7038 18.9545 86.0874 19.0824 86.5433 19.0824ZM106.453 11.1818L103.02 21H99.9522L96.5197 11.1818H99.3961L101.435 18.2067H101.537L103.57 11.1818H106.453ZM107.846 21V11.1818H110.569V21H107.846ZM108.236 9.91619L109.591 7.00781H112.11L110.16 9.91619H108.236ZM116.369 21.1598C115.623 21.1598 114.947 20.968 114.342 20.5845C113.741 20.1967 113.264 19.6278 112.911 18.8778C112.561 18.1236 112.386 17.1989 112.386 16.1037C112.386 14.9787 112.567 14.0433 112.93 13.2976C113.292 12.5476 113.773 11.9872 114.374 11.6165C114.979 11.2415 115.642 11.054 116.362 11.054C116.912 11.054 117.37 11.1477 117.737 11.3352C118.107 11.5185 118.406 11.7486 118.631 12.0256C118.862 12.2983 119.036 12.5668 119.156 12.831H119.239V7.90909H121.955V21H119.271V19.4276H119.156C119.028 19.7003 118.847 19.9709 118.612 20.2393C118.382 20.5036 118.082 20.723 117.711 20.8977C117.344 21.0724 116.897 21.1598 116.369 21.1598ZM117.232 18.9929C117.67 18.9929 118.041 18.8736 118.344 18.6349C118.651 18.392 118.885 18.0533 119.047 17.6186C119.213 17.1839 119.296 16.6747 119.296 16.0909C119.296 15.5071 119.215 15 119.053 14.5696C118.891 14.1392 118.657 13.8068 118.35 13.5724C118.043 13.3381 117.67 13.2209 117.232 13.2209C116.784 13.2209 116.407 13.3423 116.1 13.5852C115.793 13.8281 115.561 14.1648 115.403 14.5952C115.246 15.0256 115.167 15.5241 115.167 16.0909C115.167 16.6619 115.246 17.1669 115.403 17.6058C115.565 18.0405 115.798 18.3814 116.1 18.6286C116.407 18.8714 116.784 18.9929 117.232 18.9929ZM128.669 21.1918C127.659 21.1918 126.789 20.9872 126.061 20.5781C125.336 20.1648 124.778 19.581 124.386 18.8267C123.994 18.0682 123.798 17.1712 123.798 16.1357C123.798 15.1257 123.994 14.2393 124.386 13.4766C124.778 12.7138 125.33 12.1193 126.041 11.6932C126.757 11.267 127.597 11.054 128.56 11.054C129.208 11.054 129.811 11.1584 130.369 11.3672C130.931 11.5717 131.421 11.8807 131.839 12.294C132.261 12.7074 132.589 13.2273 132.823 13.8537C133.058 14.4759 133.175 15.2045 133.175 16.0398V16.7876H124.884V15.1001H130.612C130.612 14.7081 130.526 14.3608 130.356 14.0582C130.186 13.7557 129.949 13.5192 129.646 13.3487C129.348 13.174 129.001 13.0866 128.605 13.0866C128.191 13.0866 127.825 13.1825 127.505 13.3743C127.19 13.5618 126.943 13.8153 126.764 14.1349C126.585 14.4503 126.493 14.8018 126.489 15.1896V16.794C126.489 17.2798 126.578 17.6996 126.757 18.0533C126.941 18.407 127.198 18.6797 127.531 18.8714C127.863 19.0632 128.257 19.1591 128.713 19.1591C129.016 19.1591 129.293 19.1165 129.544 19.0312C129.796 18.946 130.011 18.8182 130.19 18.6477C130.369 18.4773 130.505 18.2685 130.599 18.0213L133.117 18.1875C132.99 18.7926 132.727 19.321 132.331 19.7727C131.939 20.2202 131.432 20.5696 130.81 20.821C130.192 21.0682 129.478 21.1918 128.669 21.1918ZM139.388 21.1918C138.395 21.1918 137.536 20.9808 136.812 20.5589C136.092 20.1328 135.536 19.5405 135.144 18.782C134.752 18.0192 134.556 17.1349 134.556 16.1293C134.556 15.1151 134.752 14.2287 135.144 13.4702C135.536 12.7074 136.092 12.1151 136.812 11.6932C137.536 11.267 138.395 11.054 139.388 11.054C140.381 11.054 141.237 11.267 141.958 11.6932C142.682 12.1151 143.24 12.7074 143.632 13.4702C144.024 14.2287 144.22 15.1151 144.22 16.1293C144.22 17.1349 144.024 18.0192 143.632 18.782C143.24 19.5405 142.682 20.1328 141.958 20.5589C141.237 20.9808 140.381 21.1918 139.388 21.1918ZM139.401 19.0824C139.852 19.0824 140.23 18.9545 140.532 18.6989C140.835 18.4389 141.063 18.0852 141.216 17.6378C141.374 17.1903 141.453 16.6811 141.453 16.1101C141.453 15.5391 141.374 15.0298 141.216 14.5824C141.063 14.1349 140.835 13.7812 140.532 13.5213C140.23 13.2614 139.852 13.1314 139.401 13.1314C138.945 13.1314 138.561 13.2614 138.25 13.5213C137.943 13.7812 137.711 14.1349 137.553 14.5824C137.4 15.0298 137.323 15.5391 137.323 16.1101C137.323 16.6811 137.4 17.1903 137.553 17.6378C137.711 18.0852 137.943 18.4389 138.25 18.6989C138.561 18.9545 138.945 19.0824 139.401 19.0824Z" fill="white"/>
<circle cx="73" cy="88" r="49.5" stroke="white"/>
<path d="M96 85.0359C98.6667 86.5755 98.6667 90.4245 96 91.9641L65.25 109.718C62.5833 111.257 59.25 109.333 59.25 106.254L59.25 70.7465C59.25 67.6673 62.5833 65.7428 65.25 67.2824L96 85.0359Z" fill="white"/>
</svg>
