<svg width="14" height="20" viewBox="0 0 14 20" fill="none" xmlns="http://www.w3.org/2000/svg">
<path d="M11.6209 0.580035C11.8979 0.573941 12.17 0.65426 12.3993 0.80995C12.6286 0.96564 12.8036 1.189 12.9002 1.44879C12.9967 1.70858 13.0099 1.99194 12.9379 2.25957C12.8659 2.52719 12.7123 2.76563 12.4985 2.94193L4.33962 9.9315L12.4985 16.9186C12.6464 17.0273 12.7703 17.1654 12.8624 17.3242C12.9544 17.483 13.0127 17.6591 13.0336 17.8415C13.0545 18.0239 13.0374 18.2086 12.9836 18.3841C12.9298 18.5596 12.8403 18.7221 12.7207 18.8614C12.6012 19.0008 12.4542 19.1138 12.2889 19.1936C12.1236 19.2735 11.9436 19.3183 11.7602 19.3254C11.5767 19.3325 11.3938 19.3017 11.2229 19.2348C11.0519 19.1679 10.8966 19.0665 10.7667 18.9368L1.42556 10.9445C1.27887 10.8193 1.16108 10.664 1.0803 10.4888C0.999533 10.3137 0.957705 10.1231 0.957705 9.93027C0.957705 9.73743 0.999533 9.54683 1.0803 9.37171C1.16108 9.1966 1.27887 9.04106 1.42556 8.91588L10.7667 0.915911C11.0027 0.706314 11.3053 0.587153 11.6209 0.579727V0.580035Z" fill="#252D80"/>
</svg>
