<svg width="69" height="15" viewBox="0 0 69 15" fill="none" xmlns="http://www.w3.org/2000/svg">
<path d="M32.0016 5.3659C32.0016 5.3659 31.9635 5.32796 31.9254 5.29001C31.4295 4.79679 30.8574 4.41739 30.2089 4.1518C29.5605 3.88622 28.874 3.7724 28.1492 3.7724C27.4245 3.7724 26.738 3.92416 26.0895 4.1518C25.4411 4.41739 24.869 4.79679 24.335 5.29001C23.8391 5.78324 23.4577 6.35235 23.1907 6.99733C22.9237 7.64232 22.7711 8.32524 22.7711 9.00817V9.04611C22.7711 9.76698 22.9237 10.4499 23.1907 11.057C23.4577 11.664 23.8391 12.271 24.335 12.7643C24.869 13.2575 25.4411 13.6369 26.0895 13.9025C26.738 14.1681 27.4245 14.2819 28.1492 14.2819C28.874 14.2819 29.5605 14.1301 30.2089 13.9025C30.8574 13.6369 31.4295 13.2575 31.9254 12.7643C32.0779 12.6125 32.2305 12.4228 32.3831 12.2331V13.7887C32.3831 13.9404 32.4594 14.0542 32.5356 14.1681C32.6501 14.2819 32.7645 14.3198 32.9171 14.3198C33.2604 14.3198 33.4511 14.1301 33.4511 13.7887V9.00817C33.4511 8.2873 33.2985 7.64232 33.0315 6.99733C32.8408 6.39029 32.4594 5.85912 32.0016 5.3659ZM32.3831 9.04611C32.3831 9.61522 32.2686 10.1843 32.0398 10.6775C31.8109 11.1708 31.5058 11.6261 31.1244 12.0055C30.7429 12.3849 30.2852 12.6884 29.7894 12.916C29.2935 13.1437 28.7214 13.2575 28.1492 13.2575C27.5771 13.2575 27.005 13.1437 26.5091 12.916C25.9751 12.6884 25.5174 12.3849 25.136 12.0055C24.7545 11.6261 24.4494 11.1708 24.2205 10.6775C23.9917 10.1843 23.8773 9.61522 23.8773 9.04611V8.93229C23.8773 8.36319 24.0298 7.83202 24.2587 7.3388C24.4875 6.84557 24.7927 6.39029 25.1741 6.01088C25.5555 5.63148 26.0133 5.32796 26.5091 5.13825C27.005 4.91061 27.5771 4.83473 28.1492 4.83473C28.7214 4.83473 29.2935 4.94855 29.7894 5.17619C30.2852 5.40384 30.7429 5.70736 31.1244 6.08676C31.5058 6.46617 31.8109 6.92145 32.0398 7.41468C32.2686 7.9079 32.3831 8.43907 32.3831 9.04611Z" fill="#404040"/>
<path d="M4.9204 3.73446C4.27197 3.73446 3.62355 3.84828 3.05141 4.11386C2.44113 4.3415 1.90713 4.72091 1.44942 5.17619C0.991708 5.63148 0.610282 6.16264 0.381426 6.73175C0.15257 7.33879 0 7.94584 0 8.59083V13.7507C0 13.9025 0.0381426 14.0163 0.152571 14.1301C0.266998 14.2439 0.381426 14.2819 0.533997 14.2819C0.686567 14.2819 0.800995 14.2439 0.915423 14.1301C1.02985 14.0163 1.06799 13.9025 1.06799 13.7507V8.70465C1.06799 8.66671 1.06799 8.62877 1.06799 8.59083C1.06799 8.05966 1.18242 7.60437 1.37313 7.14909C1.56385 6.69381 1.86899 6.27646 2.21227 5.935C2.55556 5.59354 2.97512 5.32795 3.43284 5.10031C3.89055 4.91061 4.3864 4.79679 4.9204 4.79679C5.07297 4.79679 5.1874 4.72091 5.30182 4.60709C5.41625 4.49327 5.4544 4.37944 5.4544 4.22768C5.4544 4.07592 5.41625 3.9621 5.30182 3.84828C5.22554 3.7724 5.07297 3.73446 4.9204 3.73446Z" fill="#404040"/>
<path d="M16.4395 5.25207C15.9436 4.75885 15.3715 4.3415 14.723 4.07592C14.0746 3.81034 13.388 3.65858 12.6633 3.65858C12.5108 3.65858 12.3963 3.73446 12.2819 3.81034C12.1675 3.92416 12.1293 4.03798 12.1293 4.18974C12.1293 4.3415 12.2056 4.45532 12.32 4.56915C12.4345 4.68297 12.5489 4.72091 12.7015 4.72091C13.2736 4.72091 13.8458 4.83473 14.3416 5.06237C14.8375 5.29001 15.2952 5.59353 15.6766 5.97294C16.058 6.35234 16.3632 6.80763 16.592 7.30085C16.8209 7.79408 16.9353 8.36318 16.9353 8.93229C16.9353 9.50139 16.8209 10.0705 16.592 10.5637C16.3632 11.0569 16.058 11.5122 15.6766 11.8916C15.2952 12.271 14.8375 12.5746 14.3416 12.8022C13.8458 13.0298 13.2736 13.1437 12.7015 13.1437C12.1293 13.1437 11.5572 13.0298 11.0613 12.8022C10.5273 12.5746 10.0696 12.271 9.68821 11.8916C9.30678 11.5122 9.00164 11.0569 8.77278 10.5637C8.54393 10.0705 8.4295 9.50139 8.4295 8.93229V0.850989C8.4295 0.699228 8.39136 0.585407 8.27693 0.471586C8.12436 0.395705 8.00993 0.319824 7.85736 0.319824C7.70479 0.319824 7.59036 0.395705 7.47593 0.509526C7.36151 0.623347 7.32336 0.737168 7.32336 0.88893V9.00817C7.32336 9.72904 7.47593 10.412 7.74293 11.0569C8.00993 11.7019 8.39136 12.271 8.88721 12.7643C9.42121 13.2575 9.99335 13.6369 10.6418 13.9025C11.2902 14.1681 11.9768 14.2819 12.7015 14.2819C13.4262 14.2819 14.1128 14.1301 14.7612 13.9025C15.4096 13.6369 15.9817 13.2575 16.4776 12.7643C16.9734 12.271 17.3549 11.7019 17.6219 11.0569C17.8889 10.412 18.0414 9.72904 18.0414 9.04611V9.00817C18.0414 8.2873 17.8889 7.60438 17.6219 6.95939C17.3167 6.3144 16.9353 5.7453 16.4395 5.25207Z" fill="#404040"/>
<path d="M20.4063 3.69651C20.2537 3.69651 20.1393 3.7724 20.0249 3.84828C19.9104 3.9621 19.8723 4.07592 19.8723 4.22768V13.7507C19.8723 13.9025 19.9104 14.0163 20.0249 14.1301C20.1393 14.2439 20.2537 14.2819 20.4063 14.2819C20.5589 14.2819 20.6733 14.2439 20.7877 14.1301C20.9021 14.0163 20.9784 13.9025 20.9784 13.7507V4.22768C20.9784 4.07592 20.9403 3.9621 20.8259 3.84828C20.6733 3.73446 20.5589 3.69651 20.4063 3.69651Z" fill="#404040"/>
<path d="M20.7877 1.15451C20.6733 1.04069 20.5589 1.00275 20.4063 1.00275C20.2537 1.00275 20.1393 1.04069 20.0249 1.15451C19.9104 1.26833 19.8723 1.38216 19.8723 1.53392V1.57186C19.8723 1.72362 19.9104 1.83744 20.0249 1.95126C20.1393 2.06508 20.2537 2.10302 20.4063 2.10302C20.5589 2.10302 20.6733 2.06508 20.7877 1.95126C20.9021 1.83744 20.9784 1.72362 20.9784 1.57186V1.53392C20.9403 1.38216 20.9021 1.26833 20.7877 1.15451Z" fill="#404040"/>
<path d="M43.7496 5.10031C43.2919 4.64502 42.7579 4.26562 42.1476 4.03798C41.5373 3.81034 40.927 3.69651 40.2786 3.69651C39.6302 3.69651 38.9817 3.81034 38.4096 4.03798C37.7993 4.26562 37.2653 4.64502 36.8076 5.10031C36.3499 5.55559 35.9685 6.08676 35.7396 6.6938C35.5108 7.30085 35.3582 7.9079 35.3582 8.55288V13.6748C35.3582 13.8266 35.3963 13.9404 35.5108 14.0542C35.6252 14.1681 35.7396 14.206 35.8922 14.206C36.0448 14.206 36.1592 14.1681 36.2736 14.0542C36.388 13.9404 36.4262 13.8266 36.4262 13.6748V8.62876C36.4262 8.59082 36.4262 8.55288 36.4262 8.51494C36.4262 7.98378 36.5406 7.52849 36.7313 7.07321C36.922 6.61792 37.2272 6.20058 37.5705 5.85912C37.9138 5.51765 38.3333 5.25207 38.791 5.02443C39.2487 4.83473 39.7446 4.72091 40.2786 4.72091C40.8126 4.72091 41.3084 4.83473 41.7662 5.02443C42.2239 5.21413 42.6434 5.51765 42.9867 5.85912C43.33 6.20058 43.597 6.61792 43.8259 7.07321C44.0166 7.52849 44.131 8.02172 44.131 8.55288V13.6748C44.131 14.0163 44.3217 14.206 44.665 14.206C45.0083 14.206 45.199 14.0163 45.199 13.6748V8.55288C45.199 7.9079 45.0846 7.26291 44.8176 6.6938C44.5506 6.08676 44.2073 5.55559 43.7496 5.10031Z" fill="#404040"/>
<path d="M55.7264 11.7778C55.5738 11.7778 55.4594 11.8158 55.3449 11.9296C54.9254 12.3469 54.4676 12.6504 53.9718 12.8401C53.4759 13.0299 52.9038 13.1437 52.3317 13.1437C51.7595 13.1437 51.1874 13.0299 50.6915 12.8022C50.1957 12.5746 49.738 12.271 49.3565 11.8916C48.9751 11.5122 48.67 11.057 48.4411 10.5637C48.2123 10.0705 48.0978 9.5014 48.0978 8.93229C48.0978 8.36319 48.2123 7.79408 48.4411 7.30085C48.67 6.76969 48.9751 6.31441 49.3565 5.935C49.738 5.5556 50.1957 5.25207 50.6915 5.02443C51.1874 4.79679 51.7595 4.68297 52.3317 4.68297H52.4079C52.9419 4.72091 53.4759 4.83473 53.9718 5.02443C54.4676 5.21413 54.8872 5.51766 55.2686 5.89706C55.3831 6.01088 55.4975 6.04882 55.6501 6.04882C55.8026 6.04882 55.9171 6.01088 56.0315 5.89706C56.1459 5.78324 56.1841 5.66942 56.1841 5.51766C56.1841 5.3659 56.1078 5.25207 56.0315 5.13825C55.5356 4.64503 54.9635 4.26562 54.3151 4.00004C53.6667 3.73446 53.0182 3.5827 52.3317 3.5827H52.2554C51.5688 3.5827 50.8822 3.73446 50.2338 4.00004C49.5854 4.26562 49.0133 4.64503 48.5174 5.13825C48.0215 5.66942 47.6401 6.23852 47.3731 6.88351C47.1061 7.5285 46.9917 8.21142 46.9917 8.93229C46.9917 9.65316 47.1443 10.3361 47.3731 10.9811C47.6401 11.6261 48.0215 12.1952 48.5174 12.6884C49.0133 13.1816 49.5854 13.561 50.2338 13.8266C50.8822 14.0922 51.5688 14.2439 52.2554 14.2439H52.2935C53.0182 14.2439 53.7048 14.0922 54.3532 13.8266C55.0016 13.561 55.5738 13.1816 56.0696 12.6884C56.1841 12.5746 56.2604 12.4228 56.2604 12.309C56.2604 12.1572 56.1841 12.0434 56.0696 11.9296C55.9934 11.8537 55.8789 11.7778 55.7264 11.7778Z" fill="#404040"/>
<path d="M68.5804 6.88351C68.3134 6.23852 67.8939 5.66942 67.398 5.13825C66.864 4.60709 66.2919 4.22768 65.6435 3.9621C64.995 3.69652 64.3085 3.5827 63.5838 3.5827C62.859 3.5827 62.1725 3.73446 61.5241 3.9621C60.8756 4.22768 60.2653 4.60709 59.7695 5.13825C59.2355 5.66942 58.8541 6.23852 58.5871 6.88351C58.3201 7.5285 58.1675 8.21142 58.1675 8.89435V8.97023C58.1675 9.6911 58.3201 10.374 58.5871 11.019C58.8541 11.664 59.2736 12.2331 59.7695 12.7643C60.3035 13.2954 60.8756 13.6748 61.5241 13.9404C62.1725 14.206 62.859 14.3198 63.5838 14.3198C64.3085 14.3198 64.995 14.1681 65.6435 13.9404C66.2919 13.6748 66.9022 13.2954 67.398 12.7643C67.932 12.271 68.3134 11.664 68.5804 11.019C68.8474 10.374 69 9.6911 69 8.97023V8.93229C68.9619 8.21142 68.8474 7.5285 68.5804 6.88351ZM63.5456 13.2196C62.9353 13.2196 62.4013 13.1057 61.8673 12.8781C61.3333 12.6504 60.8756 12.3469 60.4942 11.9675C60.1128 11.5881 59.8076 11.1328 59.5788 10.6017C59.3499 10.0705 59.2355 9.53934 59.2355 8.93229V8.78053C59.2736 8.21142 59.3881 7.68026 59.6169 7.18703C59.8458 6.69381 60.1509 6.23852 60.5705 5.85912C60.9519 5.47972 61.4096 5.17619 61.9436 4.98649C62.4395 4.75885 63.0116 4.68297 63.5838 4.68297C64.194 4.68297 64.728 4.79679 65.262 5.02443C65.796 5.25207 66.2537 5.5556 66.6352 5.935C67.0166 6.3144 67.3217 6.76969 67.5506 7.30085C67.7794 7.83202 67.8939 8.40112 67.8939 8.97023C67.8939 9.57728 67.7794 10.1084 67.5506 10.6396C67.3217 11.1708 67.0166 11.6261 66.6352 12.0055C66.2537 12.3849 65.796 12.6884 65.262 12.916C64.6899 13.1057 64.1559 13.2196 63.5456 13.2196Z" fill="#404040"/>
</svg>
