<?xml version="1.0" standalone="no"?>
<!DOCTYPE svg PUBLIC "-//W3C//DTD SVG 20010904//EN"
 "http://www.w3.org/TR/2001/REC-SVG-20010904/DTD/svg10.dtd">
<svg version="1.0" xmlns="http://www.w3.org/2000/svg"
 width="467.000000pt" height="467.000000pt" viewBox="0 0 467.000000 467.000000"
 preserveAspectRatio="xMidYMid meet">
<metadata>
Created by potrace 1.14, written by Peter Selinger 2001-2017
</metadata>
<g transform="translate(0.000000,467.000000) scale(0.100000,-0.100000)"
fill="#000000" stroke="none">
<path d="M18 3872 c-14 -3 -16 -157 -16 -1532 l1 -1530 36 -1 c45 -1 1352 -1
1366 0 12 1 14 3045 3 3057 -7 7 -1355 13 -1390 6z"/>
<path d="M1563 3867 c-3 -5 -6 -1436 -3 -1724 l0 -43 998 0 999 0 -1 -97 -1
-98 -985 -2 c-542 -1 -991 -2 -997 -2 -8 -1 -13 -14 -13 -31 l0 -30 999 0 998
0 0 -98 -1 -98 -985 1 c-542 0 -992 -1 -998 -3 -7 -2 -13 -17 -13 -33 l0 -29
999 0 999 0 -1 -98 0 -97 -999 0 -998 0 0 -32 0 -32 928 0 c510 0 959 0 998
-1 l71 0 0 -95 1 -95 -42 -1 c-22 0 -472 0 -998 -1 l-958 0 0 -32 0 -31 988 0
c543 1 992 -1 999 -3 7 -2 11 -34 10 -98 l-1 -94 -999 0 -998 0 3 -32 3 -33
1028 0 1027 0 0 1018 0 1017 -505 0 -505 0 0 -340 0 -340 -100 0 -100 0 2 437
3 438 700 0 700 0 5 -1115 5 -1115 28 -1 c18 0 27 5 28 15 1 21 1 2218 0 2253
l-1 28 -767 0 -768 -1 0 -469 1 -470 -98 0 c-71 0 -98 3 -99 13 -1 6 -2 261
-2 564 -2 485 0 553 13 554 8 1 442 2 964 3 779 1 949 -1 954 -12 2 -8 5 -567
6 -1244 l1 -1231 27 -1 c15 -1 29 3 31 9 2 5 3 579 3 1275 l-1 1265 -1030 0
-1030 0 -1 -585 c-1 -322 -2 -591 -3 -597 -1 -10 -28 -13 -99 -13 l-98 0 0
695 0 695 35 1 c48 1 2358 1 2396 0 l30 -1 -1 -1362 c0 -750 1 -1368 3 -1374
3 -9 23 -11 55 -5 3 0 6 632 5 1404 l-2 1402 -1290 0 -1290 0 -3 -727 -2 -728
-100 0 -100 0 0 825 0 825 1493 -2 1492 -3 0 -1498 c0 -823 3 -1498 8 -1498 4
-1 17 -2 30 -2 l22 -1 3 1532 c2 1222 0 1532 -10 1533 -82 5 -3091 2 -3095 -4z
m1993 -1400 l1 -307 -444 0 -443 0 0 308 0 308 443 -1 442 0 1 -308z"/>
</g>
</svg>
