<svg width="960" height="436" viewBox="0 0 960 436" fill="none" xmlns="http://www.w3.org/2000/svg">
<path d="M561.515 243.392H549.949L526.139 295.484L502.036 243.392H490.277V311.423H498.537V265.745L497.955 253.111H498.052L522.155 303.843H529.637L553.643 253.111H553.837L553.255 265.745V311.423H561.515V243.392ZM627.66 243.1H617.164L589.757 311.423H598.019L604.919 293.929H639.615L646.515 311.423H655.068L627.66 243.1ZM622.219 250.195H622.315L636.991 287.32H607.543L622.219 250.195ZM683.299 243.392V311.423H691.56V282.849H714.011L727.131 311.423H735.877L721.98 282.364C731.116 279.837 736.752 272.548 736.752 263.217C736.752 252.236 728.88 243.392 716.245 243.392H683.299ZM714.691 250C723.147 250 728.103 255.832 728.103 263.12C728.103 270.507 723.147 276.241 714.691 276.241H691.56V250H714.691ZM776.647 243.392H768.387V311.423H776.647V243.392ZM866.496 243.392H858.236V298.205L821.109 243.392H812.46V311.423H820.721V256.025L857.847 311.423H866.496V243.392ZM932.593 243.1H922.097L894.689 311.423H902.951L909.851 293.929H944.547L951.448 311.423H960L932.593 243.1ZM927.151 250.195H927.248L941.923 287.32H912.475L927.151 250.195Z" fill="#0296D3"/>
<path d="M24.9771 242.517C10.8849 242.517 0.680265 248.64 0.680265 261.177C0.680265 274.685 12.7317 278.088 24.1995 281.003C33.724 283.627 41.9849 285.765 41.9849 294.124C41.9849 300.927 37.0287 305.592 25.0745 305.592C14.5781 305.592 6.12293 301.801 2.138 300.052L0 306.369C4.85933 308.993 14.9672 312.297 25.2688 312.297C40.236 312.297 50.5375 306.077 50.5375 293.152C50.5375 280.323 39.6527 276.727 27.1151 273.52C18.0771 271.091 9.33027 268.952 9.33027 260.4C9.33027 253.208 15.3557 249.125 25.4631 249.125C36.1536 249.125 44.512 253.304 45.4839 253.888L47.8161 247.571C42.7625 245.239 34.1131 242.517 24.9771 242.517ZM130.231 243.392H75.0281V250H98.4507V311.423H106.711V250H130.231V243.392ZM206.269 243.392H158.647V311.423H207.629V304.815H166.908V281.489H200.827V274.88H166.908V250H206.269V243.392ZM245.969 243.392H237.708V311.423H281.832V304.815H245.969V243.392ZM318.645 243.392H310.384V311.423H354.508V304.815H318.645V243.392ZM416.901 243.1H406.405L378.999 311.423H387.259L394.16 293.929H428.856L435.756 311.423H444.308L416.901 243.1ZM411.459 250.195H411.556L426.232 287.32H396.784L411.459 250.195Z" fill="#231F20"/>
<path d="M338.452 393.231H333.967V434.796H337.828L338.225 429.685C340.212 433.036 344.073 435.251 349.581 435.251C358.667 435.251 363.152 428.551 363.152 420.089C363.152 411.572 358.44 404.815 349.581 404.815C343.505 404.815 340.099 407.597 338.452 410.323V393.231ZM348.445 408.392C354.863 408.392 358.496 412.821 358.496 420.089C358.496 427.244 354.805 431.673 348.389 431.673C343.279 431.673 338.396 427.812 338.396 420.089C338.396 412.253 343.279 408.392 348.445 408.392ZM395.149 405.269C389.868 404.531 386.575 408.052 385.325 411.401L384.928 405.269H381.237V434.796H385.723V419.805C385.723 413.616 388.96 408.676 394.979 409.471L395.149 405.269ZM424.596 404.815C415.681 404.815 409.379 410.551 409.379 420.033C409.379 429.516 415.681 435.251 424.596 435.251C433.511 435.251 439.813 429.516 439.813 420.033C439.813 410.551 433.511 404.815 424.596 404.815ZM424.596 408.392C430.841 408.392 435.157 412.595 435.157 420.033C435.157 427.471 430.841 431.673 424.596 431.673C418.293 431.673 414.035 427.471 414.035 420.033C414.035 412.595 418.293 408.392 424.596 408.392ZM471.384 404.815C462.469 404.815 456.167 410.551 456.167 420.033C456.167 429.516 462.469 435.251 471.384 435.251C480.299 435.251 486.601 429.516 486.601 420.033C486.601 410.551 480.299 404.815 471.384 404.815ZM471.384 408.392C477.631 408.392 481.945 412.595 481.945 420.033C481.945 427.471 477.631 431.673 471.384 431.673C465.081 431.673 460.823 427.471 460.823 420.033C460.823 412.595 465.081 408.392 471.384 408.392ZM509.184 393.231H504.697V434.796H509.184V425.768L515.203 419.692L524.515 434.796H529.569L518.212 416.625L529.341 405.269H524.345L509.184 420.6V393.231ZM550.123 393.231H545.637V430.027C545.637 433.717 547.341 435.193 550.919 435.193C552.735 435.193 554.097 435.08 554.949 434.853L554.836 431.616C554.496 431.616 553.473 431.729 552.395 431.729C551.145 431.729 550.123 431.389 550.123 429.288V393.231ZM574.011 395.389C572.364 395.389 571.343 396.241 571.343 397.773C571.343 399.364 572.364 400.159 574.011 400.159C575.715 400.159 576.68 399.364 576.68 397.773C576.68 396.241 575.715 395.389 574.011 395.389ZM576.567 405.269H568.503V408.505H572.08V434.796H576.567V405.269ZM611.567 404.872C606.059 404.872 602.709 407.143 600.664 410.664L600.324 405.269H596.405V434.796H600.892V418.784C600.892 413.729 603.675 408.336 610.317 408.336C615.144 408.336 617.983 411.175 617.983 416.625V434.796H622.469V416.285C622.469 408.221 618.211 404.872 611.567 404.872Z" fill="#231F20"/>
<path d="M417.847 203.556H325.429V1.52588e-05H417.847V203.556Z" fill="#0296D3"/>
<path d="M558.715 117.82H427.252V113.684H558.715V117.82Z" fill="#231F20"/>
<path d="M558.123 130.848V134.984H427.207V130.848H558.123Z" fill="#231F20"/>
<path d="M427.207 152.151H558.715V148.013H427.207V152.151Z" fill="#231F20"/>
<path d="M427.207 169.331H558.715V165.193H427.207V169.331Z" fill="#231F20"/>
<path d="M559.323 182.359V186.496H427.207V182.359H559.323Z" fill="#231F20"/>
<path d="M427.207 203.661H559.721V199.525H427.207V203.661Z" fill="#231F20"/>
<path d="M630.779 203.661H626.643V4.14799L431.36 4.13731L431.349 114.741H427.213L427.224 1.52588e-05L630.779 0.0106812V203.661Z" fill="#231F20"/>
<path d="M613.615 203.651H609.479V21.312L448.525 21.3013V115.025H444.388V17.1653L613.615 17.176V203.651Z" fill="#231F20"/>
<path d="M596.44 203.651H592.303L592.313 38.4774H465.7V114.643H461.564V34.3414H596.449L596.44 203.651Z" fill="#231F20"/>
<path d="M579.264 203.651H575.128L575.139 55.6507L482.865 55.6414V114.463H478.729V51.5054L579.275 51.5147L579.264 203.651Z" fill="#231F20"/>
<path d="M562.099 203.661H557.963L557.973 72.816L500.031 72.8067V114.835H495.893V68.6707L562.109 68.68L562.099 203.661Z" fill="#231F20"/>
<path d="M417.847 361.02H325.429V356.989H417.847V361.02Z" fill="#0296D3"/>
<path d="M630.779 361.02H427.207V356.989H630.779V361.02Z" fill="#231F20"/>
</svg>
