<svg width="80" height="80" viewBox="0 0 80 80" fill="none" xmlns="http://www.w3.org/2000/svg">
<circle cx="40" cy="40" r="40" fill="#3BD23B"/>
<path fill-rule="evenodd" clip-rule="evenodd" d="M53.5933 25.5711C50.0068 21.9804 45.2371 20.0021 40.1558 20C29.6851 20 21.1636 28.5213 21.1593 38.9948C21.1579 42.3428 22.0326 45.6111 23.695 48.4918L21 58.3354L31.0703 55.6937C33.8451 57.2074 36.969 58.005 40.148 58.0059H40.156C50.6255 58.0059 59.148 49.4839 59.152 39.01C59.1541 33.934 57.18 29.1615 53.5933 25.5711ZM40.1558 54.7978H40.1492C37.3162 54.7967 34.5377 54.0353 32.1131 52.597L31.5369 52.2547L25.561 53.8224L27.156 47.996L26.7805 47.3987C25.2 44.8848 24.3653 41.9792 24.3667 38.996C24.37 30.2907 31.4531 23.2083 40.1621 23.2083C44.3794 23.2097 48.3437 24.8542 51.3246 27.8386C54.3055 30.823 55.9462 34.7899 55.9448 39.0088C55.941 47.7148 48.8584 54.7978 40.1558 54.7978ZM48.8163 42.9727C48.3418 42.735 46.0081 41.5871 45.5729 41.4284C45.1382 41.27 44.8213 41.1912 44.5052 41.6661C44.1887 42.1411 43.2792 43.2104 43.0021 43.527C42.7251 43.8438 42.4485 43.8836 41.9738 43.6459C41.4991 43.4084 39.9698 42.9069 38.1566 41.2899C36.7457 40.0313 35.7932 38.477 35.5162 38.002C35.2396 37.5266 35.5138 37.2944 35.7244 37.0333C36.2382 36.3953 36.7528 35.7263 36.9109 35.4097C37.0693 35.0929 36.99 34.8157 36.8711 34.5782C36.7528 34.3407 35.8035 32.0044 35.4081 31.0537C35.0225 30.1286 34.6315 30.2535 34.3399 30.239C34.0634 30.2252 33.7468 30.2224 33.4302 30.2224C33.1139 30.2224 32.5996 30.341 32.1644 30.8165C31.7294 31.2917 30.5034 32.4398 30.5034 34.7761C30.5034 37.1124 32.2042 39.3694 32.4414 39.6862C32.6787 40.003 35.7885 44.7973 40.5498 46.853C41.6823 47.3425 42.5662 47.6343 43.2558 47.8531C44.3929 48.2143 45.4274 48.1633 46.2454 48.0412C47.1574 47.9048 49.0534 46.8928 49.4493 45.7842C49.8447 44.6754 49.8447 43.7252 49.7258 43.527C49.6074 43.329 49.2908 43.2104 48.8163 42.9727Z" fill="white"/>
</svg>
